<mxfile host="app.diagrams.net" modified="2022-01-22T09:22:27.899Z" agent="5.0 (Macintosh; Intel Mac OS X 10_15_7) AppleWebKit/605.1.15 (KHTML, like Gecko) Version/14.1.1 Safari/605.1.15" etag="HFsBo_PvpX0lzHHCoJS8" version="16.4.5" type="github">
  <diagram id="aoEWkl7r9SBsmZUvx6Md" name="Page-1">
    <mxGraphModel dx="1773" dy="1727" grid="1" gridSize="10" guides="1" tooltips="1" connect="1" arrows="1" fold="1" page="1" pageScale="1" pageWidth="827" pageHeight="1169" math="0" shadow="0">
      <root>
        <mxCell id="0" />
        <mxCell id="1" parent="0" />
        <mxCell id="eVQ8WBOrIPoRBrhiU6TB-1" value="陈某" style="rounded=0;whiteSpace=wrap;html=1;fillColor=#ffcd28;gradientColor=#ffa500;strokeColor=#d79b00;fontSize=16;" vertex="1" parent="1">
          <mxGeometry x="-60" y="213.1914893617021" width="85.33333333333333" height="43.40425531914893" as="geometry" />
        </mxCell>
        <mxCell id="eVQ8WBOrIPoRBrhiU6TB-2" value="黄某" style="rounded=0;whiteSpace=wrap;html=1;fillColor=#ffcd28;gradientColor=#ffa500;strokeColor=#d79b00;fontSize=16;" vertex="1" parent="1">
          <mxGeometry x="25.33333333333333" y="213.1914893617021" width="85.33333333333333" height="43.40425531914893" as="geometry" />
        </mxCell>
        <mxCell id="eVQ8WBOrIPoRBrhiU6TB-3" value="林某" style="rounded=0;whiteSpace=wrap;html=1;fillColor=#ffcd28;gradientColor=#ffa500;strokeColor=#d79b00;fontSize=16;" vertex="1" parent="1">
          <mxGeometry x="196" y="213.1914893617021" width="85.33333333333333" height="43.40425531914893" as="geometry" />
        </mxCell>
        <mxCell id="eVQ8WBOrIPoRBrhiU6TB-4" value="吴某" style="rounded=0;whiteSpace=wrap;html=1;fillColor=#ffcd28;gradientColor=#ffa500;strokeColor=#d79b00;fontSize=16;" vertex="1" parent="1">
          <mxGeometry x="281.3333333333333" y="213.1914893617021" width="85.33333333333333" height="43.40425531914893" as="geometry" />
        </mxCell>
        <mxCell id="eVQ8WBOrIPoRBrhiU6TB-5" value="谢某" style="rounded=0;whiteSpace=wrap;html=1;fillColor=#ffcd28;gradientColor=#ffa500;strokeColor=#d79b00;fontSize=16;" vertex="1" parent="1">
          <mxGeometry x="452" y="213.1914893617021" width="85.33333333333333" height="43.40425531914893" as="geometry" />
        </mxCell>
        <mxCell id="eVQ8WBOrIPoRBrhiU6TB-6" style="edgeStyle=none;rounded=0;orthogonalLoop=1;jettySize=auto;html=1;exitX=1;exitY=1;exitDx=0;exitDy=0;fontSize=16;" edge="1" parent="1" source="eVQ8WBOrIPoRBrhiU6TB-7">
          <mxGeometry relative="1" as="geometry">
            <mxPoint x="686.6666666666665" y="256.5957446808511" as="targetPoint" />
          </mxGeometry>
        </mxCell>
        <mxCell id="eVQ8WBOrIPoRBrhiU6TB-7" value="张某" style="rounded=0;whiteSpace=wrap;html=1;fillColor=#ffcd28;gradientColor=#ffa500;strokeColor=#d79b00;fontSize=16;" vertex="1" parent="1">
          <mxGeometry x="537.3333333333334" y="213.1914893617021" width="85.33333333333333" height="43.40425531914893" as="geometry" />
        </mxCell>
        <mxCell id="eVQ8WBOrIPoRBrhiU6TB-8" value="......." style="rounded=0;whiteSpace=wrap;html=1;fontSize=16;" vertex="1" parent="1">
          <mxGeometry x="686.6666666666666" y="234.89361702127655" width="128" height="43.40425531914893" as="geometry" />
        </mxCell>
        <mxCell id="eVQ8WBOrIPoRBrhiU6TB-9" value="3" style="rounded=0;whiteSpace=wrap;html=1;fontSize=16;fillColor=#d5e8d4;gradientColor=#97d077;strokeColor=#82b366;" vertex="1" parent="1">
          <mxGeometry x="-60" y="256.595744680851" width="85.33333333333333" height="43.40425531914893" as="geometry" />
        </mxCell>
        <mxCell id="eVQ8WBOrIPoRBrhiU6TB-10" value="2" style="rounded=0;whiteSpace=wrap;html=1;fontSize=16;fillColor=#d5e8d4;gradientColor=#97d077;strokeColor=#82b366;" vertex="1" parent="1">
          <mxGeometry x="25.33333333333333" y="256.595744680851" width="85.33333333333333" height="43.40425531914893" as="geometry" />
        </mxCell>
        <mxCell id="eVQ8WBOrIPoRBrhiU6TB-11" value="2" style="rounded=0;whiteSpace=wrap;html=1;fontSize=16;fillColor=#d5e8d4;gradientColor=#97d077;strokeColor=#82b366;" vertex="1" parent="1">
          <mxGeometry x="196" y="256.595744680851" width="85.33333333333333" height="43.40425531914893" as="geometry" />
        </mxCell>
        <mxCell id="eVQ8WBOrIPoRBrhiU6TB-12" style="edgeStyle=none;rounded=0;orthogonalLoop=1;jettySize=auto;html=1;entryX=0;entryY=0;entryDx=0;entryDy=0;exitX=1;exitY=0;exitDx=0;exitDy=0;fontSize=16;" edge="1" parent="1" source="eVQ8WBOrIPoRBrhiU6TB-10" target="eVQ8WBOrIPoRBrhiU6TB-11">
          <mxGeometry relative="1" as="geometry" />
        </mxCell>
        <mxCell id="eVQ8WBOrIPoRBrhiU6TB-13" value="8" style="rounded=0;whiteSpace=wrap;html=1;fontSize=16;fillColor=#d5e8d4;gradientColor=#97d077;strokeColor=#82b366;" vertex="1" parent="1">
          <mxGeometry x="281.3333333333333" y="256.595744680851" width="85.33333333333333" height="43.40425531914893" as="geometry" />
        </mxCell>
        <mxCell id="eVQ8WBOrIPoRBrhiU6TB-14" value="7" style="rounded=0;whiteSpace=wrap;html=1;fontSize=16;fillColor=#d5e8d4;gradientColor=#97d077;strokeColor=#82b366;" vertex="1" parent="1">
          <mxGeometry x="452" y="256.595744680851" width="85.33333333333333" height="43.40425531914893" as="geometry" />
        </mxCell>
        <mxCell id="eVQ8WBOrIPoRBrhiU6TB-15" style="edgeStyle=none;rounded=0;orthogonalLoop=1;jettySize=auto;html=1;entryX=0;entryY=0;entryDx=0;entryDy=0;exitX=1;exitY=0;exitDx=0;exitDy=0;fontSize=16;" edge="1" parent="1" source="eVQ8WBOrIPoRBrhiU6TB-13" target="eVQ8WBOrIPoRBrhiU6TB-14">
          <mxGeometry relative="1" as="geometry" />
        </mxCell>
        <mxCell id="eVQ8WBOrIPoRBrhiU6TB-16" value="1" style="rounded=0;whiteSpace=wrap;html=1;fontSize=16;fillColor=#d5e8d4;gradientColor=#97d077;strokeColor=#82b366;" vertex="1" parent="1">
          <mxGeometry x="537.3333333333334" y="256.595744680851" width="85.33333333333333" height="43.40425531914893" as="geometry" />
        </mxCell>
        <mxCell id="eVQ8WBOrIPoRBrhiU6TB-17" style="rounded=0;orthogonalLoop=1;jettySize=auto;html=1;exitX=0.5;exitY=1;exitDx=0;exitDy=0;entryX=1;entryY=0;entryDx=0;entryDy=0;fontSize=16;" edge="1" parent="1" source="eVQ8WBOrIPoRBrhiU6TB-19" target="eVQ8WBOrIPoRBrhiU6TB-1">
          <mxGeometry relative="1" as="geometry" />
        </mxCell>
        <mxCell id="eVQ8WBOrIPoRBrhiU6TB-18" value="陈某" style="rounded=0;whiteSpace=wrap;html=1;fillColor=#ffcd28;gradientColor=#ffa500;strokeColor=#d79b00;fontSize=16;" vertex="1" parent="1">
          <mxGeometry x="25.33333333333333" y="82.97872340425528" width="85.33333333333333" height="43.40425531914893" as="geometry" />
        </mxCell>
        <mxCell id="eVQ8WBOrIPoRBrhiU6TB-19" value="" style="rounded=0;whiteSpace=wrap;html=1;fontSize=16;" vertex="1" parent="1">
          <mxGeometry x="110.66666666666666" y="82.97872340425528" width="85.33333333333333" height="43.40425531914893" as="geometry" />
        </mxCell>
        <mxCell id="eVQ8WBOrIPoRBrhiU6TB-20" value="林某" style="rounded=0;whiteSpace=wrap;html=1;fillColor=#ffcd28;gradientColor=#ffa500;strokeColor=#d79b00;fontSize=16;" vertex="1" parent="1">
          <mxGeometry x="196" y="82.97872340425528" width="85.33333333333333" height="43.40425531914893" as="geometry" />
        </mxCell>
        <mxCell id="eVQ8WBOrIPoRBrhiU6TB-21" style="edgeStyle=none;rounded=0;orthogonalLoop=1;jettySize=auto;html=1;entryX=0;entryY=0;entryDx=0;entryDy=0;fontSize=16;" edge="1" parent="1" source="eVQ8WBOrIPoRBrhiU6TB-22" target="eVQ8WBOrIPoRBrhiU6TB-4">
          <mxGeometry relative="1" as="geometry" />
        </mxCell>
        <mxCell id="eVQ8WBOrIPoRBrhiU6TB-22" value="" style="rounded=0;whiteSpace=wrap;html=1;fontSize=16;" vertex="1" parent="1">
          <mxGeometry x="281.3333333333333" y="82.97872340425528" width="85.33333333333333" height="43.40425531914893" as="geometry" />
        </mxCell>
        <mxCell id="eVQ8WBOrIPoRBrhiU6TB-23" value="谢某" style="rounded=0;whiteSpace=wrap;html=1;fillColor=#ffcd28;gradientColor=#ffa500;strokeColor=#d79b00;fontSize=16;" vertex="1" parent="1">
          <mxGeometry x="366.6666666666667" y="82.97872340425528" width="85.33333333333333" height="43.40425531914893" as="geometry" />
        </mxCell>
        <mxCell id="eVQ8WBOrIPoRBrhiU6TB-24" style="edgeStyle=none;rounded=0;orthogonalLoop=1;jettySize=auto;html=1;entryX=1;entryY=0;entryDx=0;entryDy=0;fontSize=16;" edge="1" parent="1" source="eVQ8WBOrIPoRBrhiU6TB-25" target="eVQ8WBOrIPoRBrhiU6TB-5">
          <mxGeometry relative="1" as="geometry" />
        </mxCell>
        <mxCell id="eVQ8WBOrIPoRBrhiU6TB-25" value="" style="rounded=0;whiteSpace=wrap;html=1;fontSize=16;" vertex="1" parent="1">
          <mxGeometry x="452" y="82.97872340425528" width="85.33333333333333" height="43.40425531914893" as="geometry" />
        </mxCell>
        <mxCell id="eVQ8WBOrIPoRBrhiU6TB-26" value="......." style="rounded=0;whiteSpace=wrap;html=1;fontSize=16;" vertex="1" parent="1">
          <mxGeometry x="590.6666666666666" y="82.97872340425528" width="128" height="43.40425531914893" as="geometry" />
        </mxCell>
        <mxCell id="eVQ8WBOrIPoRBrhiU6TB-27" value="陈某" style="rounded=0;whiteSpace=wrap;html=1;fillColor=#ffcd28;strokeColor=#d79b00;gradientColor=#ffa500;fontSize=16;" vertex="1" parent="1">
          <mxGeometry x="238.66666666666669" y="-123.19148936170214" width="85.33333333333333" height="43.40425531914893" as="geometry" />
        </mxCell>
        <mxCell id="eVQ8WBOrIPoRBrhiU6TB-28" style="edgeStyle=none;rounded=0;orthogonalLoop=1;jettySize=auto;html=1;entryX=0.5;entryY=0;entryDx=0;entryDy=0;fontSize=16;" edge="1" parent="1" source="eVQ8WBOrIPoRBrhiU6TB-29" target="eVQ8WBOrIPoRBrhiU6TB-19">
          <mxGeometry relative="1" as="geometry" />
        </mxCell>
        <mxCell id="eVQ8WBOrIPoRBrhiU6TB-29" value="" style="rounded=0;whiteSpace=wrap;html=1;fontSize=16;" vertex="1" parent="1">
          <mxGeometry x="324" y="-123.19148936170214" width="85.33333333333333" height="43.40425531914893" as="geometry" />
        </mxCell>
        <mxCell id="eVQ8WBOrIPoRBrhiU6TB-30" value="周某" style="rounded=0;whiteSpace=wrap;html=1;fillColor=#ffcd28;strokeColor=#d79b00;gradientColor=#ffa500;fontSize=16;" vertex="1" parent="1">
          <mxGeometry x="409.3333333333333" y="-123.19148936170214" width="85.33333333333333" height="43.40425531914893" as="geometry" />
        </mxCell>
        <mxCell id="eVQ8WBOrIPoRBrhiU6TB-31" style="edgeStyle=none;rounded=0;orthogonalLoop=1;jettySize=auto;html=1;entryX=0.5;entryY=0;entryDx=0;entryDy=0;fontSize=16;" edge="1" parent="1" source="eVQ8WBOrIPoRBrhiU6TB-32" target="eVQ8WBOrIPoRBrhiU6TB-26">
          <mxGeometry relative="1" as="geometry" />
        </mxCell>
        <mxCell id="eVQ8WBOrIPoRBrhiU6TB-32" value="" style="rounded=0;whiteSpace=wrap;html=1;fontSize=16;" vertex="1" parent="1">
          <mxGeometry x="494.66666666666663" y="-123.19148936170214" width="85.33333333333333" height="43.40425531914893" as="geometry" />
        </mxCell>
        <mxCell id="eVQ8WBOrIPoRBrhiU6TB-33" value="曾某" style="rounded=0;whiteSpace=wrap;html=1;fillColor=#ffcd28;strokeColor=#d79b00;gradientColor=#ffa500;fontSize=16;" vertex="1" parent="1">
          <mxGeometry x="580" y="-123.19148936170214" width="85.33333333333333" height="43.40425531914893" as="geometry" />
        </mxCell>
        <mxCell id="eVQ8WBOrIPoRBrhiU6TB-34" value="" style="rounded=0;whiteSpace=wrap;html=1;fontSize=16;" vertex="1" parent="1">
          <mxGeometry x="665.3333333333334" y="-123.19148936170214" width="85.33333333333333" height="43.40425531914893" as="geometry" />
        </mxCell>
        <mxCell id="eVQ8WBOrIPoRBrhiU6TB-35" value="......." style="rounded=0;whiteSpace=wrap;html=1;fontSize=16;" vertex="1" parent="1">
          <mxGeometry x="772" y="82.97872340425528" width="128" height="43.40425531914893" as="geometry" />
        </mxCell>
        <mxCell id="eVQ8WBOrIPoRBrhiU6TB-36" style="edgeStyle=none;rounded=0;orthogonalLoop=1;jettySize=auto;html=1;entryX=0.5;entryY=0;entryDx=0;entryDy=0;fontSize=16;" edge="1" parent="1" source="eVQ8WBOrIPoRBrhiU6TB-34" target="eVQ8WBOrIPoRBrhiU6TB-35">
          <mxGeometry relative="1" as="geometry" />
        </mxCell>
        <mxCell id="eVQ8WBOrIPoRBrhiU6TB-37" value="二级索引" style="text;html=1;align=center;verticalAlign=middle;resizable=0;points=[];autosize=1;strokeColor=#36393d;fillColor=#ffff88;fontSize=20;fontStyle=1" vertex="1" parent="1">
          <mxGeometry x="442.00333333333333" y="-175" width="100" height="30" as="geometry" />
        </mxCell>
      </root>
    </mxGraphModel>
  </diagram>
</mxfile>
